<svg id="Layer_1" data-name="Layer 1" xmlns="http://www.w3.org/2000/svg" viewBox="0 0 400 400"><defs><style>.cls-1{fill:#714cfe;}.cls-2{fill:#d602ee;}</style></defs><title>final_icon</title><path class="cls-1" d="M301.21,105.09a37.2,37.2,0,0,1,37.2,37.21V264.76q0,59.28-37.08,93.76T200,393q-63.25,0-100.46-33.49t-37.95-92V64.08a37.2,37.2,0,0,1,37.2-37.21h0A37.21,37.21,0,0,1,136,64.08V265.25q0,35.47,17,51.72t47,16.25q62.75,0,63.75-66V142.3A37.21,37.21,0,0,1,301,105.09Z"/><rect class="cls-2" x="263.75" y="105.09" width="74.66" height="161.26" rx="37.33" ry="37.33"/><circle class="cls-2" cx="301.36" cy="44.05" r="37.05"/></svg>